<?xml version="1.0" standalone="no"?>
<!DOCTYPE svg PUBLIC "-//W3C//DTD SVG 20010904//EN"
 "http://www.w3.org/TR/2001/REC-SVG-20010904/DTD/svg10.dtd">
<svg version="1.0" xmlns="http://www.w3.org/2000/svg"
 width="700.000000pt" height="700.000000pt" viewBox="0 0 700.000000 700.000000"
 preserveAspectRatio="xMidYMid meet">
<metadata>
Created by potrace 1.11, written by Peter Selinger 2001-2013
</metadata>
<g transform="translate(0.000000,700.000000) scale(0.100000,-0.100000)"
fill="#000000" stroke="none">
<path d="M3427 6394 c-1 -1 -54 -4 -117 -8 -146 -9 -179 -12 -215 -20 -17 -3
-48 -8 -70 -11 -22 -2 -62 -9 -90 -15 -27 -6 -60 -12 -72 -15 -171 -32 -440
-126 -653 -228 -341 -163 -707 -447 -950 -737 -34 -41 -72 -86 -83 -100 -34
-41 -181 -260 -225 -336 -120 -208 -200 -398 -285 -679 -27 -88 -63 -267 -82
-405 -21 -147 -27 -526 -12 -660 14 -121 38 -275 54 -340 8 -36 16 -72 18 -81
16 -80 102 -336 150 -450 47 -108 124 -261 174 -343 l41 -66 -21 -36 c-40 -72
-71 -184 -74 -271 -5 -143 31 -265 112 -380 184 -262 551 -336 823 -165 190
119 294 320 286 547 -10 252 -167 462 -414 552 -78 29 -232 39 -320 21 -65
-13 -57 -22 -151 167 -104 211 -180 429 -217 625 -9 47 -17 92 -19 100 -26
139 -38 478 -23 635 76 760 482 1435 1118 1857 117 78 342 199 435 234 149 57
243 87 360 115 99 23 100 23 165 34 25 4 52 9 60 10 75 14 178 20 360 20 254
0 342 -8 534 -51 110 -24 234 -58 271 -73 11 -5 54 -21 95 -36 106 -39 279
-124 387 -189 51 -31 95 -56 97 -56 3 0 72 67 154 149 l149 149 -27 21 c-53
39 -236 148 -325 193 -291 149 -648 261 -930 293 -33 4 -69 9 -79 11 -47 9
-380 24 -389 18z m-1801 -4665 c77 -47 110 -156 73 -240 -19 -41 -29 -52 -76
-85 -60 -42 -153 -35 -215 17 -92 75 -95 208 -7 287 60 53 157 63 225 21z"/>
<path d="M5318 5473 l-147 -148 83 -82 c130 -127 248 -271 340 -413 16 -25 37
-57 46 -71 35 -50 147 -276 182 -364 38 -96 97 -273 104 -315 3 -14 7 -31 9
-39 12 -31 39 -185 51 -286 11 -92 -13 -84 221 -82 201 2 208 3 207 22 -3 67
-22 213 -40 305 -2 14 -7 40 -10 59 -9 54 -81 310 -104 371 -12 30 -30 78 -40
106 -26 75 -121 271 -182 377 -86 151 -186 295 -297 427 -59 70 -262 280 -271
280 -3 0 -71 -66 -152 -147z"/>
<path d="M2624 5492 c-21 -3 -21 -5 -21 -338 l0 -334 209 0 c191 0 208 1 209
18 0 9 2 64 2 122 l2 105 345 0 c307 0 373 -3 470 -19 110 -19 249 -61 357
-107 l43 -18 155 156 c178 178 175 156 34 221 -181 84 -371 143 -535 167 -21
4 -50 8 -64 11 -70 11 -240 16 -690 17 -272 1 -504 1 -516 -1z"/>
<path d="M4715 4870 l-149 -149 93 -87 c258 -243 431 -570 486 -921 l6 -41
212 1 c135 1 211 6 210 12 0 6 -4 34 -7 63 -3 29 -8 63 -11 75 -3 12 -7 33 -9
47 -37 219 -152 497 -294 710 -102 154 -221 294 -333 391 l-55 48 -149 -149z"/>
<path d="M3390 4594 c-483 -88 -849 -448 -933 -919 -8 -44 -15 -89 -16 -100
-13 -290 42 -506 185 -727 205 -318 574 -514 963 -510 68 0 93 3 201 19 19 3
78 18 130 35 298 94 550 316 684 602 32 70 75 197 82 246 3 19 9 49 13 65 13
50 10 275 -5 356 -50 281 -189 515 -422 710 -106 89 -303 179 -468 215 -103
22 -316 26 -414 8z m315 -417 c91 -23 116 -31 121 -38 3 -5 13 -9 22 -9 27 0
149 -78 212 -136 190 -177 270 -449 204 -696 -66 -246 -236 -425 -479 -506
-241 -80 -524 -12 -709 172 -100 99 -158 199 -195 337 -25 94 -23 273 4 364
57 191 194 357 370 447 44 23 185 69 194 64 4 -3 13 -1 20 4 14 8 200 6 236
-3z"/>
<path d="M5149 3273 c-2 -79 -49 -259 -100 -388 -91 -228 -262 -470 -438 -618
l-32 -27 145 -147 c172 -173 147 -171 290 -23 158 165 275 333 372 535 52 107
127 316 139 384 3 19 8 38 11 42 7 13 42 253 37 262 -2 4 -98 7 -214 7 l-209
0 -1 -27z"/>
<path d="M5994 3273 c-1 -45 -13 -154 -23 -213 -18 -104 -21 -119 -50 -232
-110 -426 -337 -822 -652 -1138 l-70 -70 149 -150 149 -150 104 108 c305 313
524 672 665 1085 40 119 96 326 108 407 3 19 7 44 10 55 10 51 22 148 31 258
l6 67 -213 0 -213 0 -1 -27z"/>
<path d="M2600 1809 c1 -318 2 -347 18 -351 9 -2 256 -3 547 -3 460 1 664 7
686 21 3 1 29 6 57 9 134 15 399 104 575 192 l88 44 -154 154 c-84 85 -157
155 -161 155 -5 0 -22 -6 -39 -14 -84 -36 -214 -81 -270 -91 -10 -3 -26 -6
-35 -9 -9 -3 -33 -8 -52 -11 -19 -3 -42 -8 -50 -10 -50 -14 -521 -24 -762 -16
l-28 1 0 138 0 137 -210 0 -210 0 0 -346z"/>
<path d="M4810 1324 c-294 -187 -679 -321 -1025 -359 -117 -13 -147 -14 -275
-15 -294 0 -544 39 -803 125 -56 19 -103 35 -105 35 -1 0 -1 -100 0 -222 l3
-222 45 -16 c25 -9 50 -17 55 -18 6 -1 60 -13 120 -28 122 -29 120 -29 188
-38 27 -4 56 -9 65 -11 24 -4 129 -16 177 -20 55 -5 434 -5 465 -1 14 2 56 7
93 10 37 4 76 9 85 10 9 2 38 6 63 10 70 10 98 16 169 32 36 9 74 17 85 20 44
8 275 84 350 114 99 39 280 126 366 175 105 61 269 169 269 179 0 12 -286 296
-297 295 -4 0 -46 -25 -93 -55z"/>
</g>
</svg>
